<svg width="56" height="56" viewBox="0 0 56 56" fill="none" xmlns="http://www.w3.org/2000/svg">
<path d="M56 17.1817V47.4534C56 50.4809 53.5369 52.9429 50.5105 52.9429H5.48844C2.46203 52.9429 0 50.4809 0 47.4534V17.1817L28 13.9005L56 17.1817Z" fill="#EFEFEF"/>
<path d="M56 17.1817V47.4534C56 50.4809 53.5369 52.9429 50.5105 52.9429H28V13.9005L56 17.1817Z" fill="#E5E5E9"/>
<path d="M56 11.7337V17.1817H0V11.7337C0 8.70623 2.46203 6.2442 5.48844 6.2442H50.5105C53.5369 6.2442 56 8.70623 56 11.7337Z" fill="#FF6769"/>
<path d="M56 11.7337V17.1817H28V6.2442H50.5105C53.5369 6.2442 56 8.70623 56 11.7337Z" fill="#FF0C6C"/>
<path d="M23.9531 3.05701C23.0471 3.05701 22.3125 3.79157 22.3125 4.69763V11.072C22.3125 11.9781 23.0471 12.7126 23.9531 12.7126C24.8592 12.7126 25.5938 11.9781 25.5938 11.072V4.69763C25.5938 3.79157 24.8592 3.05701 23.9531 3.05701Z" fill="#5A5A5A"/>
<path d="M15.8618 3.05701C14.9558 3.05701 14.2212 3.79157 14.2212 4.69763V11.072C14.2212 11.9781 14.9558 12.7126 15.8618 12.7126C16.7679 12.7126 17.5024 11.9781 17.5024 11.072V4.69763C17.5024 3.79157 16.768 3.05701 15.8618 3.05701Z" fill="#5A5A5A"/>
<path d="M7.77057 3.05701C6.86451 3.05701 6.12994 3.79157 6.12994 4.69763V11.072C6.12994 11.9781 6.86451 12.7126 7.77057 12.7126C8.67663 12.7126 9.41119 11.9781 9.41119 11.072V4.69763C9.41119 3.79157 8.67663 3.05701 7.77057 3.05701Z" fill="#5A5A5A"/>
<path d="M48.2295 3.05701C47.3234 3.05701 46.5889 3.79157 46.5889 4.69763V11.072C46.5889 11.9781 47.3234 12.7126 48.2295 12.7126C49.1356 12.7126 49.8701 11.9781 49.8701 11.072V4.69763C49.8701 3.79157 49.1356 3.05701 48.2295 3.05701Z" fill="#424242"/>
<path d="M40.1382 3.05701C39.2322 3.05701 38.4976 3.79157 38.4976 4.69763V11.072C38.4976 11.9781 39.2322 12.7126 40.1382 12.7126C41.0443 12.7126 41.7789 11.9781 41.7789 11.072V4.69763C41.7789 3.79157 41.0443 3.05701 40.1382 3.05701Z" fill="#424242"/>
<path d="M32.0469 3.05701C31.1408 3.05701 30.4062 3.79157 30.4062 4.69763V11.072C30.4062 11.9781 31.1408 12.7126 32.0469 12.7126C32.9529 12.7126 33.6875 11.9781 33.6875 11.072V4.69763C33.6875 3.79157 32.9529 3.05701 32.0469 3.05701Z" fill="#424242"/>
<path d="M39.2875 30.7059V37.2542C39.2875 37.858 38.7975 38.348 38.1938 38.348H32.3684V44.1744C32.3684 44.7781 31.8784 45.2681 31.2747 45.2681H24.7264C24.1227 45.2681 23.6327 44.7781 23.6327 44.1744V38.348H17.8052C17.2014 38.348 16.7114 37.858 16.7114 37.2542V30.7059C16.7114 30.1022 17.2014 29.6122 17.8052 29.6122H23.6327V23.7858C23.6327 23.182 24.1227 22.692 24.7264 22.692H31.2747C31.8784 22.692 32.3684 23.182 32.3684 23.7858V29.6122H38.1938C38.7975 29.6122 39.2875 30.1022 39.2875 30.7059Z" fill="#FF6769"/>
<path d="M39.2875 30.7059V37.2542C39.2875 37.858 38.7975 38.348 38.1938 38.348H32.3684V44.1744C32.3684 44.7781 31.8784 45.2681 31.2747 45.2681H28V22.692H31.2747C31.8784 22.692 32.3684 23.182 32.3684 23.7858V29.6122H38.1938C38.7975 29.6122 39.2875 30.1022 39.2875 30.7059Z" fill="#FF0C6C"/>
</svg>
