<svg width="56" height="56" viewBox="0 0 56 56" fill="none" xmlns="http://www.w3.org/2000/svg">
<path d="M32.9219 0H6.67188V56H49.3281V16.4062L32.9219 0Z" fill="#EDF9FF"/>
<path d="M49.3281 16.4062V56H28V0H32.9219L49.3281 16.4062Z" fill="#C0E1F0"/>
<path d="M32.9219 26.25H42.7656V29.5312H32.9219V26.25Z" fill="#8FC3D9"/>
<path d="M49.3281 14.0765V16.4062H32.9219V0H35.2517L49.3281 14.0765Z" fill="#8FC3D9"/>
<path d="M18.1562 16.4062C17.2511 16.4062 16.5156 15.6708 16.5156 14.7656C16.5156 13.8604 17.2511 13.125 18.1562 13.125C19.0614 13.125 19.7969 13.8604 19.7969 14.7656H23.0781C23.0781 12.6257 21.704 10.8229 19.7969 10.145V6.5625H18.1562H16.5156V10.145C14.6085 10.8229 13.2344 12.6257 13.2344 14.7656C13.2344 17.4839 15.438 19.6875 18.1562 19.6875C19.0614 19.6875 19.7969 20.4229 19.7969 21.3281C19.7969 22.2333 19.0614 22.9688 18.1562 22.9688C17.2511 22.9688 16.5156 22.2333 16.5156 21.3281H13.2344C13.2344 23.468 14.6085 25.2709 16.5156 25.9488V29.5312H18.1562H19.7969V25.9488C21.704 25.2709 23.0781 23.468 23.0781 21.3281C23.0781 18.6098 20.8745 16.4062 18.1562 16.4062Z" fill="#97DE3D"/>
<path d="M19.7969 25.9488C21.704 25.2709 23.0781 23.468 23.0781 21.3281C23.0781 18.6098 20.8745 16.4062 18.1562 16.4062V19.6875C19.0614 19.6875 19.7969 20.4229 19.7969 21.3281C19.7969 22.2333 19.0614 22.9688 18.1562 22.9688V29.5312H19.7969V25.9488Z" fill="#59C36A"/>
<path d="M19.7969 14.7656H23.0781C23.0781 12.6257 21.704 10.8229 19.7969 10.145V6.5625H18.1562V13.125C19.0614 13.125 19.7969 13.8604 19.7969 14.7656Z" fill="#59C36A"/>
<path d="M13.2344 32.8125H42.7656V36.0938H13.2344V32.8125Z" fill="#C0E1F0"/>
<path d="M13.2344 39.375H42.7656V42.6562H13.2344V39.375Z" fill="#C0E1F0"/>
<path d="M13.2344 45.9375H42.7656V49.2188H13.2344V45.9375Z" fill="#C0E1F0"/>
<path d="M26.3594 26.25H29.6406V29.5312H26.3594V26.25Z" fill="#C0E1F0"/>
<path d="M28 26.25H29.6406V29.5312H28V26.25Z" fill="#8FC3D9"/>
<path d="M28 32.8125H42.7656V36.0938H28V32.8125Z" fill="#8FC3D9"/>
<path d="M28 39.375H42.7656V42.6562H28V39.375Z" fill="#8FC3D9"/>
<path d="M28 45.9375H42.7656V49.2188H28V45.9375Z" fill="#8FC3D9"/>
</svg>
