<svg width="56" height="56" viewBox="0 0 56 56" fill="none" xmlns="http://www.w3.org/2000/svg">
<g clip-path="url(#clip0)">
<path d="M45.9921 11.6913C45.9921 17.5089 40.2226 22.4133 32.9186 28.6203C31.6608 29.69 30.3549 30.799 29.0238 31.9606L27.9453 32.9012L26.8669 31.9606C25.5358 30.799 24.2299 29.69 22.9721 28.6203C15.6681 22.4133 9.89854 17.5089 9.89854 11.6913C9.89854 5.81239 13.9202 0.0450721 19.7423 0.000228565C21.9593 -0.0172714 24.9824 0.966006 27.9453 4.37302C29.9769 1.99424 32.8983 0.00493167 36.0391 0.000228565C40.4579 -0.00863078 45.7276 4.37193 45.9834 11.2024C45.9889 11.3675 45.9921 11.5305 45.9921 11.6913Z" fill="#FF7366"/>
<path d="M45.9922 11.6913C45.9922 17.5089 40.2227 22.4133 32.9187 28.6203C31.6609 29.69 30.3549 30.799 29.0238 31.9606L27.9454 32.9012V4.37305C29.9769 1.99426 32.8983 0.00496066 36.0391 0.000257553C40.458 -0.00860178 45.7276 4.37196 45.9835 11.2024C45.9889 11.3676 45.9922 11.5305 45.9922 11.6913Z" fill="#E6455A"/>
<path d="M1.11398 13.2346C5.08121 13.2346 4.90763 18.0235 4.97665 21.7329V23.4063C5.04238 28.1641 5.46895 34.3 11.0798 38.5657C12.3594 39.55 13.9672 40.4031 15.8705 41.1579C16.0016 40.8953 16.9205 38.4344 17.0517 38.0736C15.8377 37.6142 14.6893 37.0564 13.4095 36.2033C10.194 33.4797 9.93143 32.2001 10.1611 31.6094C10.5549 30.6251 12.6876 30.8877 13.7376 31.0845C16.7891 31.6752 20.7923 33.6766 23.3189 36.2033C25.0906 37.8111 26.3047 39.8454 26.3047 42.1423V56.0001H13.1797V54.3594C13.1797 50.5531 11.6703 49.3282 9.17674 47.4907C5.33759 44.636 0.0547943 40.7314 0.0547943 24.7189V13.2346H1.11398Z" fill="#FFE1BA"/>
<path d="M29.586 16.5159V13.2346H27.9454H26.3048V16.5159H23.0235V19.7971H26.3048V23.0784H27.9454H29.586V19.7971H32.8673V16.5159H29.586Z" fill="#E6F2F2"/>
<path d="M29.586 19.7971H32.8673V16.5159H29.586V13.2346H27.9454V23.0784H29.586V19.7971Z" fill="#CFE6E6"/>
<path d="M54.886 13.2346C50.9188 13.2346 50.983 18.0234 50.914 21.7329V23.4063C50.8482 28.1641 50.4217 34.3 44.8109 38.5656C43.5312 39.55 41.9234 40.4031 40.0201 41.1579C39.889 40.8953 38.9702 38.4344 38.8389 38.0735C40.053 37.6142 41.2013 37.0563 42.4811 36.2032C45.6966 33.4797 45.9592 32.2 45.7295 31.6094C45.3358 30.625 43.2031 30.8876 42.1531 31.0845C39.1015 31.6751 35.0983 33.6766 32.5717 36.2032C30.8 37.811 29.5859 39.8454 29.5859 42.1423V56H42.7109V54.3594C42.7109 50.5531 44.2203 49.3282 46.7139 47.4907C50.553 44.636 55.9452 40.7313 55.9452 24.7189V13.2346H54.886Z" fill="#FFBFAB"/>
</g>
<defs>
<clipPath id="clip0">
<rect width="56" height="56" fill="white"/>
</clipPath>
</defs>
</svg>
