<svg width="96" height="74" viewBox="0 0 96 74" fill="none" xmlns="http://www.w3.org/2000/svg">
<path d="M8.44267 67.3787C2.94933 61.544 0 55 0 44.392C0 25.7253 13.104 8.99466 32.16 0.722656L36.9227 8.07199C19.136 17.6933 15.6587 30.1787 14.272 38.0507C17.136 36.568 20.8853 36.0507 24.56 36.392C34.1813 37.2827 41.7653 45.1813 41.7653 55C41.7653 59.9507 39.7987 64.6986 36.298 68.1993C32.7973 71.7 28.0494 73.6667 23.0987 73.6667C17.376 73.6667 11.904 71.0533 8.44267 67.3787ZM61.776 67.3787C56.2827 61.544 53.3333 55 53.3333 44.392C53.3333 25.7253 66.4373 8.99466 85.4933 0.722656L90.256 8.07199C72.4693 17.6933 68.992 30.1787 67.6053 38.0507C70.4693 36.568 74.2187 36.0507 77.8933 36.392C87.5147 37.2827 95.0987 45.1813 95.0987 55C95.0987 59.9507 93.132 64.6986 89.6313 68.1993C86.1307 71.7 81.3827 73.6667 76.432 73.6667C70.7093 73.6667 65.2373 71.0533 61.776 67.3787Z" fill="#18864A" fill-opacity="0.15"/>
</svg>
