<?xml version="1.0" standalone="no"?>
<!DOCTYPE svg PUBLIC "-//W3C//DTD SVG 20010904//EN"
 "http://www.w3.org/TR/2001/REC-SVG-20010904/DTD/svg10.dtd">
<svg version="1.0" xmlns="http://www.w3.org/2000/svg"
 width="512.000000pt" height="512.000000pt" viewBox="0 0 512.000000 512.000000"
 preserveAspectRatio="xMidYMid meet">
<metadata>
Created by potrace 1.14, written by Peter Selinger 2001-2017
</metadata>
<g transform="translate(0.000000,512.000000) scale(0.100000,-0.100000)"
fill="#000000" stroke="none">
<path d="M298 5100 c-143 -59 -246 -173 -283 -318 -13 -49 -15 -339 -15 -2217
0 -1410 4 -2175 11 -2204 39 -171 180 -311 352 -351 26 -6 841 -9 2202 -9
2349 0 2209 -3 2316 55 103 57 201 187 228 304 14 62 15 4347 0 4410 -29 128
-126 251 -246 311 l-68 34 -2225 2 c-2176 2 -2226 2 -2272 -17z"/>
</g>
</svg>
